<mxfile host="app.diagrams.net" modified="2022-04-04T01:42:17.905Z" agent="5.0 (Windows NT 10.0; Win64; x64) AppleWebKit/537.36 (KHTML, like Gecko) Chrome/99.0.4844.82 Safari/537.36" etag="DVxKQ6yxnLENYlCm2NhM" version="17.1.2" type="github">
  <diagram id="NDC4bo6qUV1IFUfRolQ6" name="Page-1">
    <mxGraphModel dx="1422" dy="762" grid="1" gridSize="10" guides="1" tooltips="1" connect="1" arrows="1" fold="1" page="1" pageScale="1" pageWidth="1169" pageHeight="827" math="0" shadow="0">
      <root>
        <mxCell id="0" />
        <mxCell id="1" parent="0" />
        <mxCell id="61lrkyeknkYS6H5JSlJV-2" value="Event Bus" style="rounded=1;whiteSpace=wrap;html=1;direction=north;fillColor=#E6E6E6;labelPosition=center;verticalLabelPosition=middle;align=center;verticalAlign=middle;flipH=0;flipV=0;" vertex="1" parent="1">
          <mxGeometry x="1060" y="70" width="40" height="550" as="geometry" />
        </mxCell>
        <mxCell id="61lrkyeknkYS6H5JSlJV-5" value="Claims " style="swimlane;startSize=20;glass=0;swimlaneLine=1;dashed=1;strokeWidth=1;swimlaneFillColor=none;rounded=1;shadow=0;sketch=0;swimlaneHead=1;horizontal=1;noLabel=0;collapsible=0;" vertex="1" parent="1">
          <mxGeometry x="880" y="150" width="150" height="60" as="geometry">
            <mxRectangle x="140" y="55" width="50" height="40" as="alternateBounds" />
          </mxGeometry>
        </mxCell>
        <mxCell id="61lrkyeknkYS6H5JSlJV-6" value="" style="sketch=0;html=1;dashed=0;whitespace=wrap;fillColor=#2875E2;strokeColor=#ffffff;points=[[0.005,0.63,0],[0.1,0.2,0],[0.9,0.2,0],[0.5,0,0],[0.995,0.63,0],[0.72,0.99,0],[0.5,1,0],[0.28,0.99,0]];shape=mxgraph.kubernetes.icon;prIcon=api" vertex="1" parent="61lrkyeknkYS6H5JSlJV-5">
          <mxGeometry x="4" y="24" width="50" height="29" as="geometry" />
        </mxCell>
        <mxCell id="61lrkyeknkYS6H5JSlJV-7" value="" style="aspect=fixed;html=1;points=[];align=center;image;fontSize=12;image=img/lib/azure2/databases/SQL_Server.svg;" vertex="1" parent="61lrkyeknkYS6H5JSlJV-5">
          <mxGeometry x="75" y="25" width="29" height="29" as="geometry" />
        </mxCell>
        <mxCell id="61lrkyeknkYS6H5JSlJV-8" value="" style="endArrow=classic;startArrow=classic;html=1;rounded=0;" edge="1" parent="61lrkyeknkYS6H5JSlJV-5">
          <mxGeometry width="50" height="50" relative="1" as="geometry">
            <mxPoint x="43" y="39" as="sourcePoint" />
            <mxPoint x="73" y="39" as="targetPoint" />
          </mxGeometry>
        </mxCell>
        <mxCell id="61lrkyeknkYS6H5JSlJV-9" value="" style="endArrow=classic;startArrow=classic;html=1;rounded=0;" edge="1" parent="1">
          <mxGeometry width="50" height="50" relative="1" as="geometry">
            <mxPoint x="1030" y="186" as="sourcePoint" />
            <mxPoint x="1060" y="186" as="targetPoint" />
          </mxGeometry>
        </mxCell>
        <mxCell id="61lrkyeknkYS6H5JSlJV-12" value="Insurance " style="swimlane;startSize=20;glass=0;swimlaneLine=1;dashed=1;strokeWidth=1;swimlaneFillColor=none;rounded=1;shadow=0;sketch=0;swimlaneHead=1;horizontal=1;noLabel=0;collapsible=0;" vertex="1" parent="1">
          <mxGeometry x="880" y="230" width="150" height="60" as="geometry">
            <mxRectangle x="140" y="55" width="50" height="40" as="alternateBounds" />
          </mxGeometry>
        </mxCell>
        <mxCell id="61lrkyeknkYS6H5JSlJV-13" value="" style="sketch=0;html=1;dashed=0;whitespace=wrap;fillColor=#2875E2;strokeColor=#ffffff;points=[[0.005,0.63,0],[0.1,0.2,0],[0.9,0.2,0],[0.5,0,0],[0.995,0.63,0],[0.72,0.99,0],[0.5,1,0],[0.28,0.99,0]];shape=mxgraph.kubernetes.icon;prIcon=api" vertex="1" parent="61lrkyeknkYS6H5JSlJV-12">
          <mxGeometry x="4" y="24" width="50" height="29" as="geometry" />
        </mxCell>
        <mxCell id="61lrkyeknkYS6H5JSlJV-14" value="" style="aspect=fixed;html=1;points=[];align=center;image;fontSize=12;image=img/lib/azure2/databases/SQL_Server.svg;" vertex="1" parent="61lrkyeknkYS6H5JSlJV-12">
          <mxGeometry x="75" y="25" width="29" height="29" as="geometry" />
        </mxCell>
        <mxCell id="61lrkyeknkYS6H5JSlJV-15" value="" style="endArrow=classic;startArrow=classic;html=1;rounded=0;" edge="1" parent="61lrkyeknkYS6H5JSlJV-12">
          <mxGeometry width="50" height="50" relative="1" as="geometry">
            <mxPoint x="43" y="40" as="sourcePoint" />
            <mxPoint x="73" y="40" as="targetPoint" />
          </mxGeometry>
        </mxCell>
        <mxCell id="61lrkyeknkYS6H5JSlJV-16" value="Payment " style="swimlane;startSize=20;glass=0;swimlaneLine=1;dashed=1;strokeWidth=1;swimlaneFillColor=none;rounded=1;shadow=0;sketch=0;swimlaneHead=1;horizontal=1;noLabel=0;collapsible=0;" vertex="1" parent="1">
          <mxGeometry x="880" y="310" width="150" height="60" as="geometry">
            <mxRectangle x="140" y="55" width="50" height="40" as="alternateBounds" />
          </mxGeometry>
        </mxCell>
        <mxCell id="61lrkyeknkYS6H5JSlJV-17" value="" style="sketch=0;html=1;dashed=0;whitespace=wrap;fillColor=#2875E2;strokeColor=#ffffff;points=[[0.005,0.63,0],[0.1,0.2,0],[0.9,0.2,0],[0.5,0,0],[0.995,0.63,0],[0.72,0.99,0],[0.5,1,0],[0.28,0.99,0]];shape=mxgraph.kubernetes.icon;prIcon=api" vertex="1" parent="61lrkyeknkYS6H5JSlJV-16">
          <mxGeometry x="4" y="24" width="50" height="29" as="geometry" />
        </mxCell>
        <mxCell id="61lrkyeknkYS6H5JSlJV-18" value="" style="aspect=fixed;html=1;points=[];align=center;image;fontSize=12;image=img/lib/azure2/databases/SQL_Server.svg;" vertex="1" parent="61lrkyeknkYS6H5JSlJV-16">
          <mxGeometry x="75" y="25" width="29" height="29" as="geometry" />
        </mxCell>
        <mxCell id="61lrkyeknkYS6H5JSlJV-19" value="" style="endArrow=classic;startArrow=classic;html=1;rounded=0;" edge="1" parent="61lrkyeknkYS6H5JSlJV-16">
          <mxGeometry width="50" height="50" relative="1" as="geometry">
            <mxPoint x="43" y="40" as="sourcePoint" />
            <mxPoint x="73" y="40" as="targetPoint" />
          </mxGeometry>
        </mxCell>
        <mxCell id="61lrkyeknkYS6H5JSlJV-20" value="Reporting    " style="swimlane;startSize=20;glass=0;swimlaneLine=1;dashed=1;strokeWidth=1;swimlaneFillColor=none;rounded=1;shadow=0;sketch=0;swimlaneHead=1;horizontal=1;noLabel=0;collapsible=0;" vertex="1" parent="1">
          <mxGeometry x="880" y="390" width="150" height="60" as="geometry">
            <mxRectangle x="140" y="55" width="50" height="40" as="alternateBounds" />
          </mxGeometry>
        </mxCell>
        <mxCell id="61lrkyeknkYS6H5JSlJV-21" value="" style="sketch=0;html=1;dashed=0;whitespace=wrap;fillColor=#2875E2;strokeColor=#ffffff;points=[[0.005,0.63,0],[0.1,0.2,0],[0.9,0.2,0],[0.5,0,0],[0.995,0.63,0],[0.72,0.99,0],[0.5,1,0],[0.28,0.99,0]];shape=mxgraph.kubernetes.icon;prIcon=api" vertex="1" parent="61lrkyeknkYS6H5JSlJV-20">
          <mxGeometry x="4" y="24" width="50" height="29" as="geometry" />
        </mxCell>
        <mxCell id="61lrkyeknkYS6H5JSlJV-22" value="" style="aspect=fixed;html=1;points=[];align=center;image;fontSize=12;image=img/lib/azure2/databases/SQL_Server.svg;" vertex="1" parent="61lrkyeknkYS6H5JSlJV-20">
          <mxGeometry x="75" y="25" width="29" height="29" as="geometry" />
        </mxCell>
        <mxCell id="61lrkyeknkYS6H5JSlJV-23" value="" style="endArrow=classic;startArrow=classic;html=1;rounded=0;" edge="1" parent="61lrkyeknkYS6H5JSlJV-20">
          <mxGeometry width="50" height="50" relative="1" as="geometry">
            <mxPoint x="43" y="40" as="sourcePoint" />
            <mxPoint x="73" y="40" as="targetPoint" />
          </mxGeometry>
        </mxCell>
        <mxCell id="61lrkyeknkYS6H5JSlJV-24" value="Vehicle Rental     " style="swimlane;startSize=20;glass=0;swimlaneLine=1;dashed=1;strokeWidth=1;swimlaneFillColor=none;rounded=1;shadow=0;sketch=0;swimlaneHead=1;horizontal=1;noLabel=0;collapsible=0;" vertex="1" parent="1">
          <mxGeometry x="880" y="470" width="150" height="60" as="geometry">
            <mxRectangle x="140" y="55" width="50" height="40" as="alternateBounds" />
          </mxGeometry>
        </mxCell>
        <mxCell id="61lrkyeknkYS6H5JSlJV-25" value="" style="sketch=0;html=1;dashed=0;whitespace=wrap;fillColor=#2875E2;strokeColor=#ffffff;points=[[0.005,0.63,0],[0.1,0.2,0],[0.9,0.2,0],[0.5,0,0],[0.995,0.63,0],[0.72,0.99,0],[0.5,1,0],[0.28,0.99,0]];shape=mxgraph.kubernetes.icon;prIcon=api" vertex="1" parent="61lrkyeknkYS6H5JSlJV-24">
          <mxGeometry x="4" y="24" width="50" height="29" as="geometry" />
        </mxCell>
        <mxCell id="61lrkyeknkYS6H5JSlJV-26" value="" style="aspect=fixed;html=1;points=[];align=center;image;fontSize=12;image=img/lib/azure2/databases/SQL_Server.svg;" vertex="1" parent="61lrkyeknkYS6H5JSlJV-24">
          <mxGeometry x="75" y="25" width="29" height="29" as="geometry" />
        </mxCell>
        <mxCell id="61lrkyeknkYS6H5JSlJV-27" value="" style="endArrow=classic;startArrow=classic;html=1;rounded=0;" edge="1" parent="61lrkyeknkYS6H5JSlJV-24">
          <mxGeometry width="50" height="50" relative="1" as="geometry">
            <mxPoint x="43" y="40" as="sourcePoint" />
            <mxPoint x="73" y="40" as="targetPoint" />
          </mxGeometry>
        </mxCell>
        <mxCell id="61lrkyeknkYS6H5JSlJV-32" value="Policies" style="swimlane;startSize=20;glass=0;swimlaneLine=1;dashed=1;strokeWidth=1;swimlaneFillColor=none;rounded=1;shadow=0;sketch=0;swimlaneHead=1;horizontal=1;noLabel=0;collapsible=0;" vertex="1" parent="1">
          <mxGeometry x="880" y="550" width="150" height="60" as="geometry">
            <mxRectangle x="140" y="55" width="50" height="40" as="alternateBounds" />
          </mxGeometry>
        </mxCell>
        <mxCell id="61lrkyeknkYS6H5JSlJV-33" value="" style="sketch=0;html=1;dashed=0;whitespace=wrap;fillColor=#2875E2;strokeColor=#ffffff;points=[[0.005,0.63,0],[0.1,0.2,0],[0.9,0.2,0],[0.5,0,0],[0.995,0.63,0],[0.72,0.99,0],[0.5,1,0],[0.28,0.99,0]];shape=mxgraph.kubernetes.icon;prIcon=api" vertex="1" parent="61lrkyeknkYS6H5JSlJV-32">
          <mxGeometry x="4" y="24" width="50" height="29" as="geometry" />
        </mxCell>
        <mxCell id="61lrkyeknkYS6H5JSlJV-34" value="" style="aspect=fixed;html=1;points=[];align=center;image;fontSize=12;image=img/lib/azure2/databases/SQL_Server.svg;" vertex="1" parent="61lrkyeknkYS6H5JSlJV-32">
          <mxGeometry x="75" y="25" width="29" height="29" as="geometry" />
        </mxCell>
        <mxCell id="61lrkyeknkYS6H5JSlJV-35" value="" style="endArrow=classic;startArrow=classic;html=1;rounded=0;" edge="1" parent="61lrkyeknkYS6H5JSlJV-32">
          <mxGeometry width="50" height="50" relative="1" as="geometry">
            <mxPoint x="43" y="40" as="sourcePoint" />
            <mxPoint x="73" y="40" as="targetPoint" />
          </mxGeometry>
        </mxCell>
        <mxCell id="61lrkyeknkYS6H5JSlJV-36" value="Document Storage" style="swimlane;startSize=20;glass=0;swimlaneLine=1;dashed=1;strokeWidth=1;swimlaneFillColor=none;rounded=1;shadow=0;sketch=0;swimlaneHead=1;horizontal=1;noLabel=0;collapsible=0;" vertex="1" parent="1">
          <mxGeometry x="880" y="640" width="150" height="60" as="geometry">
            <mxRectangle x="140" y="55" width="50" height="40" as="alternateBounds" />
          </mxGeometry>
        </mxCell>
        <mxCell id="61lrkyeknkYS6H5JSlJV-37" value="" style="sketch=0;html=1;dashed=0;whitespace=wrap;fillColor=#2875E2;strokeColor=#ffffff;points=[[0.005,0.63,0],[0.1,0.2,0],[0.9,0.2,0],[0.5,0,0],[0.995,0.63,0],[0.72,0.99,0],[0.5,1,0],[0.28,0.99,0]];shape=mxgraph.kubernetes.icon;prIcon=api" vertex="1" parent="61lrkyeknkYS6H5JSlJV-36">
          <mxGeometry x="4" y="24" width="50" height="29" as="geometry" />
        </mxCell>
        <mxCell id="61lrkyeknkYS6H5JSlJV-38" value="" style="aspect=fixed;html=1;points=[];align=center;image;fontSize=12;image=img/lib/azure2/databases/SQL_Server.svg;" vertex="1" parent="61lrkyeknkYS6H5JSlJV-36">
          <mxGeometry x="75" y="25" width="29" height="29" as="geometry" />
        </mxCell>
        <mxCell id="61lrkyeknkYS6H5JSlJV-39" value="" style="endArrow=classic;startArrow=classic;html=1;rounded=0;" edge="1" parent="61lrkyeknkYS6H5JSlJV-36">
          <mxGeometry width="50" height="50" relative="1" as="geometry">
            <mxPoint x="43" y="40" as="sourcePoint" />
            <mxPoint x="73" y="40" as="targetPoint" />
          </mxGeometry>
        </mxCell>
        <mxCell id="61lrkyeknkYS6H5JSlJV-40" value="" style="sketch=0;aspect=fixed;html=1;points=[];align=center;image;fontSize=12;image=img/lib/mscae/Service_Bus.svg;fillColor=#E6E6E6;" vertex="1" parent="1">
          <mxGeometry x="1130" y="320" width="30" height="30" as="geometry" />
        </mxCell>
        <mxCell id="61lrkyeknkYS6H5JSlJV-41" value="" style="endArrow=classic;startArrow=classic;html=1;rounded=0;" edge="1" parent="1">
          <mxGeometry width="50" height="50" relative="1" as="geometry">
            <mxPoint x="1030" y="266" as="sourcePoint" />
            <mxPoint x="1060" y="266" as="targetPoint" />
          </mxGeometry>
        </mxCell>
        <mxCell id="61lrkyeknkYS6H5JSlJV-42" value="" style="endArrow=classic;startArrow=classic;html=1;rounded=0;" edge="1" parent="1">
          <mxGeometry width="50" height="50" relative="1" as="geometry">
            <mxPoint x="1030" y="343" as="sourcePoint" />
            <mxPoint x="1060" y="343" as="targetPoint" />
          </mxGeometry>
        </mxCell>
        <mxCell id="61lrkyeknkYS6H5JSlJV-43" value="" style="endArrow=classic;startArrow=classic;html=1;rounded=0;" edge="1" parent="1">
          <mxGeometry width="50" height="50" relative="1" as="geometry">
            <mxPoint x="1031" y="427" as="sourcePoint" />
            <mxPoint x="1061" y="427" as="targetPoint" />
          </mxGeometry>
        </mxCell>
        <mxCell id="61lrkyeknkYS6H5JSlJV-44" value="" style="endArrow=classic;startArrow=classic;html=1;rounded=0;" edge="1" parent="1">
          <mxGeometry width="50" height="50" relative="1" as="geometry">
            <mxPoint x="1030" y="508" as="sourcePoint" />
            <mxPoint x="1060" y="508" as="targetPoint" />
          </mxGeometry>
        </mxCell>
        <mxCell id="61lrkyeknkYS6H5JSlJV-45" value="" style="endArrow=classic;startArrow=classic;html=1;rounded=0;" edge="1" parent="1">
          <mxGeometry width="50" height="50" relative="1" as="geometry">
            <mxPoint x="1031" y="583" as="sourcePoint" />
            <mxPoint x="1061" y="583" as="targetPoint" />
          </mxGeometry>
        </mxCell>
        <mxCell id="61lrkyeknkYS6H5JSlJV-46" value="" style="verticalLabelPosition=bottom;html=1;verticalAlign=top;align=center;strokeColor=none;fillColor=#00BEF2;shape=mxgraph.azure.storage_blob;" vertex="1" parent="1">
          <mxGeometry x="1129" y="540" width="30" height="30" as="geometry" />
        </mxCell>
        <mxCell id="61lrkyeknkYS6H5JSlJV-48" value="" style="endArrow=classic;startArrow=classic;html=1;rounded=0;edgeStyle=orthogonalEdgeStyle;entryX=0.5;entryY=1;entryDx=0;entryDy=0;entryPerimeter=0;" edge="1" parent="1" target="61lrkyeknkYS6H5JSlJV-46">
          <mxGeometry width="50" height="50" relative="1" as="geometry">
            <mxPoint x="1030" y="684" as="sourcePoint" />
            <mxPoint x="1140" y="684" as="targetPoint" />
          </mxGeometry>
        </mxCell>
        <mxCell id="61lrkyeknkYS6H5JSlJV-49" value="" style="endArrow=classic;startArrow=classic;html=1;rounded=0;entryX=0;entryY=0.25;entryDx=0;entryDy=0;" edge="1" parent="1" target="61lrkyeknkYS6H5JSlJV-2">
          <mxGeometry width="50" height="50" relative="1" as="geometry">
            <mxPoint x="1030" y="670" as="sourcePoint" />
            <mxPoint x="1070" y="650" as="targetPoint" />
          </mxGeometry>
        </mxCell>
        <mxCell id="61lrkyeknkYS6H5JSlJV-50" value="&lt;font style=&quot;font-size: 12px&quot;&gt;Save Historic Data&lt;br&gt;&amp;nbsp;In Blob Storage&lt;/font&gt;" style="text;html=1;align=center;verticalAlign=middle;resizable=0;points=[];autosize=1;strokeColor=none;fillColor=none;" vertex="1" parent="1">
          <mxGeometry x="1038" y="684" width="110" height="30" as="geometry" />
        </mxCell>
        <mxCell id="61lrkyeknkYS6H5JSlJV-55" value="Notification" style="swimlane;startSize=20;glass=0;swimlaneLine=1;dashed=1;strokeWidth=1;swimlaneFillColor=none;rounded=1;shadow=0;sketch=0;swimlaneHead=1;horizontal=1;noLabel=0;collapsible=0;" vertex="1" parent="1">
          <mxGeometry x="880" y="40" width="150" height="100" as="geometry">
            <mxRectangle x="140" y="55" width="50" height="40" as="alternateBounds" />
          </mxGeometry>
        </mxCell>
        <mxCell id="61lrkyeknkYS6H5JSlJV-59" value="&lt;span style=&quot;font-size: 10px&quot;&gt;Azure&lt;/span&gt;&lt;br style=&quot;font-size: 10px&quot;&gt;&lt;span style=&quot;font-size: 10px&quot;&gt;Function&lt;/span&gt;" style="html=1;points=[];align=center;image;fontSize=12;image=img/lib/azure2/compute/Function_Apps.svg;fillColor=#E6E6E6;" vertex="1" parent="61lrkyeknkYS6H5JSlJV-55">
          <mxGeometry x="10.14" y="26.5" width="29" height="29" as="geometry" />
        </mxCell>
        <mxCell id="61lrkyeknkYS6H5JSlJV-61" value="" style="sketch=0;aspect=fixed;html=1;points=[];align=center;image;fontSize=12;image=img/lib/mscae/SendGrid_Accounts.svg;fillColor=#E6E6E6;" vertex="1" parent="61lrkyeknkYS6H5JSlJV-55">
          <mxGeometry x="66" y="29" width="29" height="29" as="geometry" />
        </mxCell>
        <mxCell id="61lrkyeknkYS6H5JSlJV-64" value="" style="aspect=fixed;html=1;points=[];align=center;image;fontSize=12;image=img/lib/azure2/databases/SQL_Server.svg;" vertex="1" parent="61lrkyeknkYS6H5JSlJV-55">
          <mxGeometry x="110" y="50" width="29" height="29" as="geometry" />
        </mxCell>
        <mxCell id="61lrkyeknkYS6H5JSlJV-73" value="Send Grid" style="text;html=1;align=center;verticalAlign=middle;resizable=0;points=[];autosize=1;strokeColor=none;fillColor=none;fontSize=10;" vertex="1" parent="61lrkyeknkYS6H5JSlJV-55">
          <mxGeometry x="50" y="54.5" width="60" height="20" as="geometry" />
        </mxCell>
        <mxCell id="61lrkyeknkYS6H5JSlJV-62" value="" style="endArrow=classic;startArrow=classic;html=1;rounded=0;" edge="1" parent="1">
          <mxGeometry width="50" height="50" relative="1" as="geometry">
            <mxPoint x="917" y="86" as="sourcePoint" />
            <mxPoint x="947" y="86" as="targetPoint" />
          </mxGeometry>
        </mxCell>
        <mxCell id="61lrkyeknkYS6H5JSlJV-63" value="" style="endArrow=classic;startArrow=classic;html=1;rounded=0;" edge="1" parent="1">
          <mxGeometry width="50" height="50" relative="1" as="geometry">
            <mxPoint x="1030" y="96" as="sourcePoint" />
            <mxPoint x="1060" y="96" as="targetPoint" />
          </mxGeometry>
        </mxCell>
      </root>
    </mxGraphModel>
  </diagram>
</mxfile>
